<svg id="Layer_1" data-name="Layer 1" xmlns="http://www.w3.org/2000/svg" viewBox="0 0 1167 755"><defs><style>.cls-1{fill:#da344d;}.cls-2{fill:#4062bb;}</style></defs><title>bang</title><polygon class="cls-1" points="327 232 258 77 425 198 494 25 571 232 746 0 814 248 1033 77 969 296 1167 405 977 452 1052 650 842 552 844 700 704 596 539 755 531 598 327 744 331 511 148 632 200 438 0 336 250 321 162 111 327 232"/><polygon class="cls-2" points="790.19 498.2 843.52 617.99 714.45 524.48 661.13 658.18 601.62 498.2 466.37 677.5 413.81 485.83 244.56 617.99 294.02 448.74 141 364.5 287.84 328.17 229.88 175.15 392.18 250.89 390.63 136.51 498.83 216.88 626.35 94 632.53 215.34 790.19 102.5 787.1 282.57 928.53 189.06 888.34 338.99 1042.91 417.82 849.7 429.42 917.71 591.71 790.19 498.2"/></svg>